<?xml version="1.0" standalone="no"?>
<!DOCTYPE svg PUBLIC "-//W3C//DTD SVG 20010904//EN"
 "http://www.w3.org/TR/2001/REC-SVG-20010904/DTD/svg10.dtd">
<svg version="1.0" xmlns="http://www.w3.org/2000/svg"
 width="451.000000pt" height="353.000000pt" viewBox="0 0 451.000000 353.000000"
 preserveAspectRatio="xMidYMid meet">

<g transform="translate(0.000000,353.000000) scale(0.100000,-0.100000)"
fill="#000000" stroke="none">
<path d="M2272 3210 c-137 -29 -252 -151 -314 -335 l-27 -80 -75 -5 c-41 -3
-78 -8 -81 -12 -4 -4 -23 -80 -42 -170 -19 -90 -50 -237 -69 -328 -19 -91 -53
-252 -76 -357 -23 -106 -38 -196 -35 -200 4 -4 51 -6 105 -6 79 1 111 7 177
30 218 78 366 257 399 486 l7 47 -33 1 c-88 3 -89 -1 28 167 58 83 109 152
114 152 8 0 200 -311 200 -324 0 -3 -22 -6 -50 -6 -50 0 -50 0 -50 -32 -1
-114 -72 -275 -167 -378 -36 -39 -60 -70 -54 -70 22 0 187 88 281 150 124 82
214 151 270 209 25 25 89 87 141 136 l96 91 -32 154 c-31 148 -54 239 -63 250
-2 3 -44 7 -94 10 l-90 5 -23 72 c-76 241 -257 381 -443 343z m175 -256 c23
-13 53 -39 66 -57 24 -31 57 -91 57 -102 0 -3 -106 -5 -236 -5 l-235 0 7 23
c20 64 103 146 172 168 42 13 122 0 169 -27z"/>
<path d="M3177 2548 c-94 -159 -320 -413 -507 -570 -255 -214 -556 -371 -780
-407 -222 -36 -450 16 -558 128 l-45 46 5 -82 c4 -66 11 -94 37 -147 35 -72
72 -108 146 -142 115 -53 318 -56 501 -7 93 24 119 26 414 33 173 4 431 8 573
9 241 1 258 2 253 19 -2 9 -41 193 -86 409 l-82 392 61 123 c54 109 106 238
96 238 -2 0 -14 -19 -28 -42z"/>
<path d="M326 1085 c-8 -21 -8 -378 0 -399 5 -13 25 -16 116 -16 l109 0 -3 53
-3 52 -52 3 c-32 2 -54 8 -55 15 -1 7 -2 77 -2 157 l-1 145 -51 3 c-40 2 -53
-1 -58 -13z"/>
<path d="M742 1091 c-40 -10 -76 -42 -92 -81 -7 -18 -11 -70 -8 -139 3 -121
16 -152 74 -181 43 -21 132 -19 174 6 55 31 70 72 70 189 0 114 -15 158 -66
187 -37 22 -107 30 -152 19z m98 -100 c5 -11 10 -59 10 -106 0 -100 -9 -125
-48 -125 -45 0 -52 16 -52 118 0 109 9 132 50 132 19 0 33 -7 40 -19z"/>
<path d="M1140 1078 c-65 -33 -80 -69 -80 -193 0 -126 15 -160 83 -194 38 -19
56 -22 92 -17 51 8 97 42 115 86 19 45 8 60 -45 60 -40 0 -47 -3 -56 -27 -16
-44 -38 -53 -63 -27 -23 22 -23 216 0 238 25 26 47 17 63 -27 10 -24 15 -27
61 -27 45 0 50 2 50 23 0 38 -38 87 -83 107 -55 25 -83 25 -137 -2z"/>
<path d="M1553 1088 c-17 -23 -114 -401 -105 -410 5 -5 29 -8 53 -6 40 3 45 6
54 36 9 31 11 32 62 32 42 0 55 -4 59 -17 12 -39 23 -48 59 -51 20 -2 43 -1
50 2 9 3 -1 56 -41 206 -30 111 -56 206 -59 211 -9 14 -121 11 -132 -3z m81
-200 c9 -35 8 -38 -14 -38 -20 0 -25 15 -14 44 9 23 21 20 28 -6z"/>
<path d="M1897 1094 c-4 -4 -7 -99 -7 -210 0 -237 -13 -217 135 -212 l90 3 0
50 0 50 -57 3 -57 3 -3 157 -3 157 -45 3 c-25 2 -49 0 -53 -4z"/>
<path d="M2347 1094 c-4 -4 -7 -26 -7 -50 0 -45 10 -54 61 -54 l28 0 3 -157 3
-158 50 0 50 0 3 157 3 157 32 3 c31 3 32 4 32 53 l0 50 -126 3 c-69 1 -128
-1 -132 -4z"/>
<path d="M2694 1087 c-2 -7 -3 -102 -2 -212 l3 -200 50 0 50 0 5 80 5 80 21
-45 c12 -25 25 -56 29 -70 13 -42 25 -50 76 -50 59 0 59 2 19 100 -36 87 -36
87 -8 117 16 17 23 39 26 81 3 50 1 60 -21 84 -13 14 -42 31 -63 37 -56 16
-183 14 -190 -2z m155 -81 c7 -8 11 -27 9 -43 -2 -22 -9 -29 -30 -31 -27 -3
-28 -2 -28 42 0 38 3 46 19 46 10 0 24 -6 30 -14z"/>
<path d="M3177 1093 c-13 -22 -107 -398 -103 -410 4 -10 20 -13 53 -11 44 3
47 5 55 36 8 31 10 32 62 32 51 0 53 -1 62 -32 9 -31 12 -33 62 -36 39 -2 52
0 52 11 0 25 -102 392 -112 405 -11 13 -124 17 -131 5z m83 -220 c0 -16 -6
-23 -20 -23 -23 0 -24 7 -9 47 8 22 12 24 19 13 6 -8 10 -25 10 -37z"/>
<path d="M3525 1088 c-3 -7 -4 -103 -3 -213 l3 -200 95 0 c81 0 100 3 131 23
56 34 74 80 74 187 -1 161 -44 206 -202 213 -73 4 -94 1 -98 -10z m176 -114
c18 -22 18 -156 0 -178 -7 -9 -26 -16 -42 -16 l-29 0 0 105 0 105 29 0 c16 0
35 -7 42 -16z"/>
<path d="M3935 1088 c-3 -8 -4 -103 -3 -213 l3 -200 115 0 115 0 0 50 0 50
-62 3 c-62 3 -63 3 -63 32 0 28 2 29 53 32 l52 3 3 53 3 52 -55 0 c-49 0 -56
3 -56 20 0 16 8 19 63 22 l62 3 0 50 0 50 -113 3 c-85 2 -114 0 -117 -10z"/>
</g>
</svg>
